Adsworth-24PT G XT0.ufo
<glyph name="exclam" format="2">
  <advance width="400"/>
  <unicode hex="0021"/>
  <outline>
    <contour>
      <point x="122" y="392" type="line"/>
      <point x="122" y="1500" type="line"/>
      <point x="278" y="1500" type="line"/>
      <point x="278" y="392" type="line"/>
    </contour>
    <contour>
      <point x="198" y="-16" type="line" smooth="yes"/>
      <point x="250" y="-16"/>
      <point x="310" y="44"/>
      <point x="310" y="93" type="qcurve" smooth="yes"/>
      <point x="310" y="100" type="line" smooth="yes"/>
      <point x="310" y="149"/>
      <point x="251" y="210"/>
      <point x="198" y="210" type="qcurve" smooth="yes"/>
      <point x="196" y="210" type="line" smooth="yes"/>
      <point x="147" y="210"/>
      <point x="90" y="149"/>
      <point x="90" y="100" type="qcurve" smooth="yes"/>
      <point x="90" y="93" type="line" smooth="yes"/>
      <point x="90" y="43"/>
      <point x="146" y="-16"/>
      <point x="196" y="-16" type="qcurve" smooth="yes"/>
    </contour>
  </outline>
</glyph>
<glyph name="quotedbl" format="2">
  <advance width="634"/>
  <unicode hex="0022"/>
  <outline>
    <contour>
      <point x="84" y="962" type="line"/>
      <point x="84" y="1500" type="line"/>
      <point x="237" y="1500" type="line"/>
      <point x="237" y="962" type="line"/>
    </contour>
    <contour>
      <point x="397" y="962" type="line"/>
      <point x="397" y="1500" type="line"/>
      <point x="550" y="1500" type="line"/>
      <point x="550" y="962" type="line"/>
    </contour>
  </outline>
</glyph>
<glyph name="dollar" format="2">
  <advance width="681"/>
  <unicode hex="0024"/>
  <outline>
    <contour>
      <point x="469" y="383" type="line" smooth="yes"/>
      <point x="469.0" y="501.0"/>
      <point x="382" y="632"/>
      <point x="292" y="712" type="qcurve" smooth="yes"/>
      <point x="179" y="813"/>
      <point x="54" y="1004"/>
      <point x="54" y="1172" type="qcurve" smooth="yes"/>
      <point x="54" y="1209" type="line" smooth="yes"/>
      <point x="54" y="1357"/>
      <point x="221" y="1504"/>
      <point x="333" y="1504" type="qcurve" smooth="yes"/>
      <point x="347" y="1504" type="line" smooth="yes"/>
      <point x="450" y="1504"/>
      <point x="604.0" y="1360"/>
      <point x="604" y="1247" type="qcurve" smooth="yes"/>
      <point x="604" y="1086" type="line"/>
      <point x="435" y="1086" type="line"/>
      <point x="435" y="1219" type="line" smooth="yes"/>
      <point x="435.0" y="1284"/>
      <point x="380" y="1347"/>
      <point x="343" y="1347" type="qcurve" smooth="yes"/>
      <point x="329" y="1347" type="line" smooth="yes"/>
      <point x="285" y="1347"/>
      <point x="210.0" y="1278"/>
      <point x="210" y="1222" type="qcurve" smooth="yes"/>
      <point x="210" y="1117" type="line" smooth="yes"/>
      <point x="210" y="1034"/>
      <point x="288" y="942"/>
      <point x="375" y="865" type="qcurve" smooth="yes"/>
      <point x="478" y="774"/>
      <point x="624" y="567"/>
      <point x="624" y="398" type="qcurve" smooth="yes"/>
      <point x="624" y="355" type="line" smooth="yes"/>
      <point x="624.0" y="190.0"/>
      <point x="464" y="-4"/>
      <point x="341" y="-4" type="qcurve" smooth="yes"/>
      <point x="328" y="-4" type="line" smooth="yes"/>
      <point x="207" y="-4"/>
      <point x="43" y="184.0"/>
      <point x="43" y="341" type="qcurve" smooth="yes"/>
      <point x="43" y="451" type="line"/>
      <point x="211" y="451" type="line"/>
      <point x="211" y="299" type="line" smooth="yes"/>
      <point x="211.0" y="221.0"/>
      <point x="277" y="141"/>
      <point x="332" y="141" type="qcurve" smooth="yes"/>
      <point x="347" y="141" type="line" smooth="yes"/>
      <point x="400" y="141"/>
      <point x="469" y="234"/>
      <point x="469" y="351" type="qcurve" smooth="yes"/>
    </contour>
    <contour>
      <point x="290" y="-100" type="line"/>
      <point x="290" y="791" type="line"/>
      <point x="380" y="791" type="line"/>
      <point x="380" y="-100" type="line"/>
    </contour>
    <contour>
      <point x="291" y="800" type="line"/>
      <point x="291" y="1593" type="line"/>
      <point x="381" y="1593" type="line"/>
      <point x="381" y="800" type="line"/>
    </contour>
  </outline>
</glyph>
<glyph name="percent" format="2">
  <advance width="1471"/>
  <unicode hex="0025"/>
  <outline>
    <contour>
      <point x="336" y="619" type="line" smooth="yes"/>
      <point x="215" y="619"/>
      <point x="40" y="824"/>
      <point x="40" y="987" type="qcurve" smooth="yes"/>
      <point x="40.0" y="1192" type="line" smooth="yes"/>
      <point x="40.0" y="1334"/>
      <point x="213.0" y="1520.0"/>
      <point x="334.0" y="1520.0" type="qcurve" smooth="yes"/>
      <point x="338.0" y="1520.0" type="line" smooth="yes"/>
      <point x="461.0" y="1520.0"/>
      <point x="641.0" y="1334"/>
      <point x="641.0" y="1192" type="qcurve" smooth="yes"/>
      <point x="641" y="987" type="line" smooth="yes"/>
      <point x="641" y="824"/>
      <point x="464" y="619"/>
      <point x="340" y="619" type="qcurve" smooth="yes"/>
    </contour>
    <contour>
      <point x="338" y="756" type="line" smooth="yes"/>
      <point x="403" y="756"/>
      <point x="481" y="875"/>
      <point x="481" y="971" type="qcurve" smooth="yes"/>
      <point x="481.0" y="1198" type="line" smooth="yes"/>
      <point x="481.0" y="1277"/>
      <point x="405.0" y="1378"/>
      <point x="338.0" y="1378" type="qcurve" smooth="yes"/>
      <point x="336.0" y="1378" type="line" smooth="yes"/>
      <point x="273.0" y="1378"/>
      <point x="200.0" y="1277"/>
      <point x="200.0" y="1198" type="qcurve" smooth="yes"/>
      <point x="200" y="971" type="line" smooth="yes"/>
      <point x="200" y="875"/>
      <point x="272" y="756"/>
      <point x="336" y="756" type="qcurve" smooth="yes"/>
    </contour>
    <contour>
      <point x="1126" y="-21" type="line" smooth="yes"/>
      <point x="1005" y="-21"/>
      <point x="830" y="184"/>
      <point x="830" y="347" type="qcurve" smooth="yes"/>
      <point x="830.0" y="552" type="line" smooth="yes"/>
      <point x="830.0" y="694"/>
      <point x="1003.0" y="880.0"/>
      <point x="1124.0" y="880.0" type="qcurve" smooth="yes"/>
      <point x="1128.0" y="880.0" type="line" smooth="yes"/>
      <point x="1251.0" y="880.0"/>
      <point x="1431.0" y="694"/>
      <point x="1431.0" y="552" type="qcurve" smooth="yes"/>
      <point x="1431" y="347" type="line" smooth="yes"/>
      <point x="1431" y="184"/>
      <point x="1254" y="-21"/>
      <point x="1130" y="-21" type="qcurve" smooth="yes"/>
    </contour>
    <contour>
      <point x="1128" y="116" type="line" smooth="yes"/>
      <point x="1193" y="116"/>
      <point x="1271" y="235"/>
      <point x="1271" y="331" type="qcurve" smooth="yes"/>
      <point x="1271.0" y="558" type="line" smooth="yes"/>
      <point x="1271.0" y="637"/>
      <point x="1195.0" y="738.0"/>
      <point x="1128.0" y="738.0" type="qcurve" smooth="yes"/>
      <point x="1126.0" y="738.0" type="line" smooth="yes"/>
      <point x="1063.0" y="738.0"/>
      <point x="990.0" y="637"/>
      <point x="990.0" y="558" type="qcurve" smooth="yes"/>
      <point x="990" y="331" type="line" smooth="yes"/>
      <point x="990" y="235"/>
      <point x="1062" y="116"/>
      <point x="1126" y="116" type="qcurve" smooth="yes"/>
    </contour>
    <contour>
      <point x="232" y="0" type="line"/>
      <point x="1072" y="1500" type="line"/>
      <point x="1232" y="1500" type="line"/>
      <point x="392" y="0" type="line"/>
    </contour>
  </outline>
</glyph>
<glyph name="parenright" format="2">
  <advance width="450"/>
  <unicode hex="0029"/>
  <outline>
    <contour>
      <point x="153" y="-311" type="qcurve"/>
      <point x="-7" y="-251" type="line"/>
      <point x="214" y="135"/>
      <point x="214" y="1055"/>
      <point x="-2" y="1465" type="qcurve"/>
      <point x="158" y="1525" type="line"/>
      <point x="395" y="1090"/>
      <point x="395" y="110"/>
    </contour>
  </outline>
</glyph>
<glyph name="two" format="2">
  <advance width="626"/>
  <unicode hex="0032"/>
  <outline>
    <contour>
      <point x="626" y="0" type="line"/>
      <point x="16" y="0" type="line"/>
      <point x="16" y="135" type="line"/>
      <point x="362" y="851" type="line" smooth="yes"/>
      <point x="397" y="923"/>
      <point x="452" y="1072"/>
      <point x="452" y="1152" type="qcurve" smooth="yes"/>
      <point x="452" y="1208" type="line" smooth="yes"/>
      <point x="452" y="1287"/>
      <point x="370" y="1362"/>
      <point x="312" y="1362" type="qcurve" smooth="yes"/>
      <point x="294" y="1362" type="line" smooth="yes"/>
      <point x="241" y="1362"/>
      <point x="156" y="1289"/>
      <point x="155" y="1189" type="qcurve" smooth="yes"/>
      <point x="154" y="1114" type="line"/>
      <point x="12" y="1110" type="line"/>
      <point x="12" y="1213" type="line" smooth="yes"/>
      <point x="12" y="1353"/>
      <point x="172.0" y="1513.0"/>
      <point x="289" y="1513" type="qcurve" smooth="yes"/>
      <point x="308" y="1513" type="line" smooth="yes"/>
      <point x="452.0" y="1513.0"/>
      <point x="608" y="1338"/>
      <point x="608" y="1212" type="qcurve" smooth="yes"/>
      <point x="608" y="1169" type="line" smooth="yes"/>
      <point x="608.0" y="1068.0"/>
      <point x="549" y="882"/>
      <point x="517" y="818" type="qcurve" smooth="yes"/>
      <point x="181" y="145" type="line"/>
      <point x="626" y="145" type="line"/>
    </contour>
  </outline>
</glyph>
<glyph name="three" format="2">
  <advance width="652"/>
  <unicode hex="0033"/>
  <outline>
    <contour>
      <point x="286" y="756" type="qcurve" smooth="yes"/>
      <point x="176" y="757" type="line"/>
      <point x="176" y="904" type="line"/>
      <point x="279" y="907" type="line" smooth="yes"/>
      <point x="363" y="909"/>
      <point x="429" y="1005"/>
      <point x="429" y="1111" type="qcurve" smooth="yes"/>
      <point x="429" y="1231" type="line" smooth="yes"/>
      <point x="429" y="1295"/>
      <point x="373.0" y="1363.0"/>
      <point x="323" y="1363" type="qcurve"/>
      <point x="304" y="1363" type="line"/>
      <point x="251.0" y="1363.0"/>
      <point x="195" y="1303"/>
      <point x="195" y="1239" type="qcurve" smooth="yes"/>
      <point x="195" y="1163" type="line"/>
      <point x="37" y="1165" type="line"/>
      <point x="37" y="1261" type="line" smooth="yes"/>
      <point x="37" y="1364"/>
      <point x="195.0" y="1513.0"/>
      <point x="305" y="1513" type="qcurve"/>
      <point x="317" y="1513" type="line"/>
      <point x="428" y="1513"/>
      <point x="583.0" y="1374.0"/>
      <point x="583" y="1245" type="qcurve" smooth="yes"/>
      <point x="583" y="1127" type="line" smooth="yes"/>
      <point x="583" y="1003"/>
      <point x="509" y="859"/>
      <point x="436" y="829" type="qcurve"/>
      <point x="508" y="812"/>
      <point x="604.0" y="702.0"/>
      <point x="604" y="580" type="qcurve" smooth="yes"/>
      <point x="604" y="302" type="line" smooth="yes"/>
      <point x="604.0" y="161.0"/>
      <point x="469" y="-15"/>
      <point x="332" y="-15" type="qcurve"/>
      <point x="315" y="-15" type="line"/>
      <point x="184" y="-15"/>
      <point x="30" y="133"/>
      <point x="28" y="255" type="qcurve" smooth="yes"/>
      <point x="26" y="408" type="line"/>
      <point x="184" y="410" type="line"/>
      <point x="184" y="252" type="line" smooth="yes"/>
      <point x="184" y="196"/>
      <point x="243" y="135"/>
      <point x="300" y="135" type="qcurve"/>
      <point x="322" y="135" type="line"/>
      <point x="388" y="135"/>
      <point x="441.0" y="247.0"/>
      <point x="441" y="371" type="qcurve" smooth="yes"/>
      <point x="441" y="540" type="line" smooth="yes"/>
      <point x="441.0" y="663.0"/>
      <point x="358" y="755"/>
    </contour>
  </outline>
</glyph>
<glyph name="semicolon" format="2">
  <advance width="450"/>
  <unicode hex="003B"/>
  <outline>
    <contour>
      <point x="242" y="684" type="line" smooth="yes"/>
      <point x="294" y="684"/>
      <point x="354" y="744"/>
      <point x="354" y="793" type="qcurve" smooth="yes"/>
      <point x="354" y="800" type="line" smooth="yes"/>
      <point x="354" y="849"/>
      <point x="295" y="910"/>
      <point x="242" y="910" type="qcurve" smooth="yes"/>
      <point x="240" y="910" type="line" smooth="yes"/>
      <point x="191" y="910"/>
      <point x="134" y="849"/>
      <point x="134" y="800" type="qcurve" smooth="yes"/>
      <point x="134" y="793" type="line" smooth="yes"/>
      <point x="134" y="743"/>
      <point x="190" y="684"/>
      <point x="240" y="684" type="qcurve" smooth="yes"/>
    </contour>
    <contour>
      <point x="114" y="-206" type="line"/>
      <point x="144" y="88" type="line" smooth="yes"/>
      <point x="149" y="138"/>
      <point x="199" y="212"/>
      <point x="243" y="212" type="qcurve" smooth="yes"/>
      <point x="253" y="212.0" type="line" smooth="yes"/>
      <point x="289.0" y="212.0"/>
      <point x="333.0" y="162.0"/>
      <point x="333" y="118.0" type="qcurve" smooth="yes"/>
      <point x="333" y="111" type="line" smooth="yes"/>
      <point x="333" y="65"/>
      <point x="260" y="-134"/>
      <point x="225" y="-233" type="qcurve"/>
    </contour>
  </outline>
</glyph>
<glyph name="question" format="2">
  <advance width="750"/>
  <unicode hex="003F"/>
  <outline>
    <contour>
      <point x="324" y="-16" type="line" smooth="yes"/>
      <point x="376" y="-16"/>
      <point x="436" y="44"/>
      <point x="436" y="93" type="qcurve" smooth="yes"/>
      <point x="436" y="100" type="line" smooth="yes"/>
      <point x="436" y="149"/>
      <point x="377" y="210"/>
      <point x="324" y="210" type="qcurve" smooth="yes"/>
      <point x="322" y="210" type="line" smooth="yes"/>
      <point x="273" y="210"/>
      <point x="216" y="149"/>
      <point x="216" y="100" type="qcurve" smooth="yes"/>
      <point x="216" y="93" type="line" smooth="yes"/>
      <point x="216" y="43"/>
      <point x="272" y="-16"/>
      <point x="322" y="-16" type="qcurve" smooth="yes"/>
    </contour>
    <contour>
      <point x="396" y="393" type="line"/>
      <point x="244" y="393" type="line"/>
      <point x="242" y="841" type="line"/>
      <point x="380" y="860"/>
      <point x="496" y="976"/>
      <point x="496.0" y="1125.0" type="qcurve" smooth="yes"/>
      <point x="496.0" y="1171.0" type="line" smooth="yes"/>
      <point x="496.0" y="1289.0"/>
      <point x="424.0" y="1373.0"/>
      <point x="373.0" y="1373.0" type="qcurve" smooth="yes"/>
      <point x="350" y="1373" type="line" smooth="yes"/>
      <point x="299" y="1373"/>
      <point x="234.0" y="1291"/>
      <point x="235" y="1202" type="qcurve" smooth="yes"/>
      <point x="236" y="1120" type="line"/>
      <point x="72" y="1120" type="line"/>
      <point x="72" y="1201" type="line" smooth="yes"/>
      <point x="72" y="1343"/>
      <point x="221" y="1523"/>
      <point x="356" y="1523" type="qcurve" smooth="yes"/>
      <point x="387.0" y="1523" type="line" smooth="yes"/>
      <point x="515" y="1523"/>
      <point x="664" y="1364"/>
      <point x="664.0" y="1190.0" type="qcurve" smooth="yes"/>
      <point x="664.0" y="1095.0" type="line" smooth="yes"/>
      <point x="664.0" y="922.0"/>
      <point x="514.0" y="770"/>
      <point x="395.0" y="745" type="qcurve"/>
    </contour>
  </outline>
</glyph>
<glyph name="at" format="2">
  <advance width="1287"/>
  <unicode hex="0040"/>
  <outline>
    <contour>
      <point x="835" y="855" type="qcurve" smooth="yes"/>
      <point x="798" y="567" type="line" smooth="yes"/>
      <point x="783" y="450"/>
      <point x="655" y="311"/>
      <point x="553" y="313" type="qcurve" smooth="yes"/>
      <point x="549" y="313" type="line" smooth="yes"/>
      <point x="436" y="315"/>
      <point x="324" y="504"/>
      <point x="346" y="678" type="qcurve" smooth="yes"/>
      <point x="369" y="853" type="line" smooth="yes"/>
      <point x="387" y="993"/>
      <point x="547" y="1161"/>
      <point x="660" y="1158" type="qcurve" smooth="yes"/>
      <point x="664" y="1158" type="line" smooth="yes"/>
      <point x="766" y="1156"/>
      <point x="852" y="989"/>
    </contour>
    <contour>
      <point x="781" y="793" type="line" smooth="yes"/>
      <point x="797" y="920"/>
      <point x="747" y="1018"/>
      <point x="682" y="1020" type="qcurve" smooth="yes"/>
      <point x="678" y="1020" type="line" smooth="yes"/>
      <point x="608" y="1021"/>
      <point x="532" y="912"/>
      <point x="521" y="826" type="qcurve" smooth="yes"/>
      <point x="498" y="648" type="line" smooth="yes"/>
      <point x="486" y="556"/>
      <point x="535" y="442"/>
      <point x="604" y="442" type="qcurve" smooth="yes"/>
      <point x="608" y="442" type="line" smooth="yes"/>
      <point x="675" y="442.0"/>
      <point x="751" y="562"/>
      <point x="766" y="672" type="qcurve" smooth="yes"/>
    </contour>
    <contour>
      <point x="774" y="513" type="qcurve" smooth="yes"/>
      <point x="839" y="1133" type="line"/>
      <point x="970" y="1131" type="line"/>
      <point x="890" y="522" type="line" smooth="yes"/>
      <point x="885" y="486"/>
      <point x="909" y="450.0"/>
      <point x="952" y="450" type="qcurve" smooth="yes"/>
      <point x="1011" y="450"/>
      <point x="1118" y="669"/>
      <point x="1118" y="824" type="qcurve" smooth="yes"/>
      <point x="1118" y="1039"/>
      <point x="882" y="1382"/>
      <point x="673" y="1382" type="qcurve" smooth="yes"/>
      <point x="468" y="1382"/>
      <point x="213" y="1011"/>
      <point x="213" y="715" type="qcurve" smooth="yes"/>
      <point x="213" y="397"/>
      <point x="464" y="43"/>
      <point x="660" y="43" type="qcurve" smooth="yes"/>
      <point x="806" y="43"/>
      <point x="984" y="161"/>
      <point x="1022" y="210" type="qcurve"/>
      <point x="1118" y="98" type="line"/>
      <point x="1043" y="1"/>
      <point x="809" y="-102"/>
      <point x="654" y="-102" type="qcurve" smooth="yes"/>
      <point x="407" y="-102"/>
      <point x="60" y="322"/>
      <point x="60" y="715" type="qcurve" smooth="yes"/>
      <point x="60" y="1077"/>
      <point x="431" y="1524"/>
      <point x="670" y="1524" type="qcurve" smooth="yes"/>
      <point x="908" y="1524"/>
      <point x="1260" y="1156"/>
      <point x="1260" y="836" type="qcurve" smooth="yes"/>
      <point x="1260" y="603"/>
      <point x="1061.0" y="319.0"/>
      <point x="942" y="319" type="qcurve" smooth="yes"/>
      <point x="851" y="319"/>
      <point x="763" y="426"/>
    </contour>
  </outline>
</glyph>
<glyph name="C" format="2">
  <advance width="727"/>
  <unicode hex="0043"/>
  <outline>
    <contour>
      <point x="369" y="135" type="line" smooth="yes"/>
      <point x="435" y="135"/>
      <point x="507.0" y="240"/>
      <point x="507" y="331" type="qcurve" smooth="yes"/>
      <point x="507" y="552" type="line"/>
      <point x="656" y="552" type="line"/>
      <point x="656" y="293" type="line" smooth="yes"/>
      <point x="656" y="158"/>
      <point x="513" y="-14"/>
      <point x="384" y="-14" type="qcurve" smooth="yes"/>
      <point x="350" y="-14" type="line" smooth="yes"/>
      <point x="223" y="-14"/>
      <point x="70" y="195"/>
      <point x="70" y="377" type="qcurve" smooth="yes"/>
      <point x="70" y="1128" type="line" smooth="yes"/>
      <point x="70" y="1308"/>
      <point x="217" y="1514"/>
      <point x="340" y="1514" type="qcurve" smooth="yes"/>
      <point x="378" y="1514" type="line" smooth="yes"/>
      <point x="500" y="1514"/>
      <point x="657" y="1349"/>
      <point x="657" y="1200" type="qcurve" smooth="yes"/>
      <point x="657" y="947" type="line"/>
      <point x="507" y="947" type="line"/>
      <point x="507" y="1167" type="line" smooth="yes"/>
      <point x="507.0" y="1261.0"/>
      <point x="439" y="1362"/>
      <point x="381" y="1362" type="qcurve" smooth="yes"/>
      <point x="362" y="1362" type="line" smooth="yes"/>
      <point x="295.0" y="1362.0"/>
      <point x="229.0" y="1259.0"/>
      <point x="229" y="1174" type="qcurve" smooth="yes"/>
      <point x="229" y="329" type="line" smooth="yes"/>
      <point x="229" y="239.0"/>
      <point x="293" y="135"/>
      <point x="352" y="135" type="qcurve" smooth="yes"/>
    </contour>
  </outline>
</glyph>
<glyph name="G" format="2">
  <advance width="726"/>
  <unicode hex="0047"/>
  <outline>
    <contour>
      <point x="376" y="135.0" type="line" smooth="yes"/>
      <point x="438.0" y="135.0"/>
      <point x="510" y="215"/>
      <point x="510" y="319" type="qcurve" smooth="yes"/>
      <point x="510" y="578.0" type="line"/>
      <point x="387" y="577.0" type="line"/>
      <point x="387" y="728.0" type="line"/>
      <point x="656" y="729.0" type="line"/>
      <point x="656.0" y="297" type="line" smooth="yes"/>
      <point x="656" y="144"/>
      <point x="519" y="-14"/>
      <point x="386" y="-14.0" type="qcurve" smooth="yes"/>
      <point x="343" y="-14.0" type="line" smooth="yes"/>
      <point x="209" y="-14"/>
      <point x="70" y="213.0"/>
      <point x="70" y="372.0" type="qcurve" smooth="yes"/>
      <point x="70" y="1132.0" type="line" smooth="yes"/>
      <point x="70" y="1303"/>
      <point x="218.0" y="1514.0"/>
      <point x="337" y="1514.0" type="qcurve" smooth="yes"/>
      <point x="390" y="1514.0" type="line" smooth="yes"/>
      <point x="509.0" y="1514.0"/>
      <point x="654" y="1346"/>
      <point x="654" y="1193.0" type="qcurve" smooth="yes"/>
      <point x="654" y="986.0" type="line"/>
      <point x="510" y="986.0" type="line"/>
      <point x="510" y="1161.0" type="line" smooth="yes"/>
      <point x="510" y="1260"/>
      <point x="444.0" y="1362.0"/>
      <point x="386" y="1362.0" type="qcurve" smooth="yes"/>
      <point x="355" y="1362.0" type="line" smooth="yes"/>
      <point x="292.0" y="1362.0"/>
      <point x="225" y="1257.0"/>
      <point x="225" y="1170.0" type="qcurve" smooth="yes"/>
      <point x="225" y="330.0" type="line" smooth="yes"/>
      <point x="225" y="241.0"/>
      <point x="297" y="135"/>
      <point x="352" y="135.0" type="qcurve" smooth="yes"/>
    </contour>
  </outline>
</glyph>
<glyph name="I" format="2">
  <advance width="420"/>
  <unicode hex="0049"/>
  <outline>
    <contour>
      <point x="130" y="0" type="line"/>
      <point x="130" y="1500" type="line"/>
      <point x="290" y="1500" type="line"/>
      <point x="290" y="0" type="line"/>
    </contour>
    <contour>
      <point x="266" y="0" type="line"/>
      <point x="156" y="0" type="line"/>
      <point x="156" y="135" type="line"/>
      <point x="266" y="135" type="line"/>
    </contour>
    <contour>
      <point x="266" y="1365" type="line"/>
      <point x="156" y="1365" type="line"/>
      <point x="156" y="1500" type="line"/>
      <point x="266" y="1500" type="line"/>
    </contour>
  </outline>
</glyph>
<glyph name="P" format="2">
  <advance width="759"/>
  <unicode hex="0050"/>
  <outline>
    <contour>
      <point x="126" y="0" type="line"/>
      <point x="126" y="1500" type="line"/>
      <point x="286" y="1500" type="line"/>
      <point x="286" y="0" type="line"/>
    </contour>
    <contour>
      <point x="476" y="623" type="qcurve" smooth="yes"/>
      <point x="206" y="623" type="line"/>
      <point x="206" y="762" type="line"/>
      <point x="423" y="762" type="line" smooth="yes"/>
      <point x="487.0" y="762.0"/>
      <point x="541" y="826"/>
      <point x="541" y="886" type="qcurve" smooth="yes"/>
      <point x="541" y="1235" type="line" smooth="yes"/>
      <point x="541" y="1295"/>
      <point x="484.0" y="1355.0"/>
      <point x="431" y="1355" type="qcurve" smooth="yes"/>
      <point x="206" y="1355" type="line"/>
      <point x="206" y="1500" type="line"/>
      <point x="485" y="1500" type="line" smooth="yes"/>
      <point x="582.0" y="1500.0"/>
      <point x="700" y="1384"/>
      <point x="700" y="1275" type="qcurve" smooth="yes"/>
      <point x="700" y="853" type="line" smooth="yes"/>
      <point x="700" y="743"/>
      <point x="560.0" y="623.0"/>
    </contour>
  </outline>
</glyph>
<glyph name="U" format="2">
  <advance width="821"/>
  <unicode hex="0055"/>
  <outline>
    <contour>
      <point x="110" y="1500" type="line"/>
      <point x="270" y="1500" type="line"/>
      <point x="270" y="266" type="line" smooth="yes"/>
      <point x="270.0" y="201.0"/>
      <point x="346.0" y="125"/>
      <point x="405" y="125" type="qcurve" smooth="yes"/>
      <point x="418" y="125" type="line" smooth="yes"/>
      <point x="478" y="125"/>
      <point x="555.0" y="205.0"/>
      <point x="555" y="275" type="qcurve" smooth="yes"/>
      <point x="554" y="1500" type="line"/>
      <point x="711" y="1500" type="line"/>
      <point x="707" y="295" type="line" smooth="yes"/>
      <point x="706.0" y="137.0"/>
      <point x="542.0" y="-16.0"/>
      <point x="423" y="-16" type="qcurve" smooth="yes"/>
      <point x="389" y="-16" type="line" smooth="yes"/>
      <point x="271.0" y="-16"/>
      <point x="110" y="153.0"/>
      <point x="110" y="300" type="qcurve" smooth="yes"/>
    </contour>
  </outline>
</glyph>
<glyph name="V" format="2">
  <advance width="710"/>
  <unicode hex="0056"/>
  <outline>
    <contour>
      <point x="285" y="0" type="line"/>
      <point x="0" y="1500" type="line"/>
      <point x="170" y="1500" type="line"/>
      <point x="355" y="368" type="line"/>
      <point x="547" y="1500" type="line"/>
      <point x="710" y="1500" type="line"/>
      <point x="425" y="0" type="line"/>
    </contour>
  </outline>
</glyph>
<glyph name="asciicircum" format="2">
  <advance width="1072"/>
  <unicode hex="005E"/>
  <outline>
    <contour>
      <point x="618.0" y="1513.0" type="line"/>
      <point x="944.0" y="833.0" type="line"/>
      <point x="752.0" y="833.0" type="line"/>
      <point x="546.0" y="1335.0" type="line"/>
      <point x="319.0" y="833.0" type="line"/>
      <point x="128.0" y="833.0" type="line"/>
      <point x="458.0" y="1513.0" type="line"/>
    </contour>
  </outline>
</glyph>
<glyph name="grave" format="2">
  <advance width="500"/>
  <unicode hex="0060"/>
  <outline>
    <contour>
      <point x="270.0" y="1463.0" type="line"/>
      <point x="448.0" y="1087.0" type="line"/>
      <point x="286.0" y="1087.0" type="line"/>
      <point x="70.0" y="1463.0" type="line"/>
    </contour>
  </outline>
</glyph>
<glyph name="d" format="2">
  <advance width="760"/>
  <unicode hex="0064"/>
  <outline>
    <contour>
      <point x="654" y="0" type="line"/>
      <point x="499" y="0" type="line"/>
      <point x="499" y="1500" type="line"/>
      <point x="654" y="1500" type="line"/>
    </contour>
    <contour>
      <point x="545" y="722" type="qcurve" smooth="yes"/>
      <point x="545" y="243" type="line" smooth="yes"/>
      <point x="545" y="126"/>
      <point x="415" y="-15"/>
      <point x="313" y="-15" type="qcurve" smooth="yes"/>
      <point x="309" y="-15" type="line" smooth="yes"/>
      <point x="196" y="-15"/>
      <point x="50" y="171"/>
      <point x="50" y="345" type="qcurve" smooth="yes"/>
      <point x="50" y="710" type="line" smooth="yes"/>
      <point x="50" y="850"/>
      <point x="198" y="1020"/>
      <point x="311" y="1020" type="qcurve" smooth="yes"/>
      <point x="315" y="1020" type="line" smooth="yes"/>
      <point x="417" y="1020"/>
      <point x="545" y="856"/>
    </contour>
    <contour>
      <point x="499" y="659" type="line" smooth="yes"/>
      <point x="499" y="786"/>
      <point x="416" y="882"/>
      <point x="351" y="882" type="qcurve" smooth="yes"/>
      <point x="347" y="882" type="line" smooth="yes"/>
      <point x="277" y="882"/>
      <point x="205" y="772"/>
      <point x="205" y="686" type="qcurve" smooth="yes"/>
      <point x="205" y="318" type="line" smooth="yes"/>
      <point x="205" y="226"/>
      <point x="278" y="114"/>
      <point x="347" y="114" type="qcurve" smooth="yes"/>
      <point x="351" y="114" type="line" smooth="yes"/>
      <point x="418" y="114"/>
      <point x="499" y="237"/>
      <point x="499" y="347" type="qcurve" smooth="yes"/>
    </contour>
  </outline>
</glyph>
<glyph name="f" format="2">
  <advance width="407"/>
  <unicode hex="0066"/>
  <outline>
    <contour>
      <point x="416" y="852" type="line"/>
      <point x="24" y="852" type="line"/>
      <point x="24" y="1000" type="line"/>
      <point x="416" y="1000" type="line"/>
    </contour>
    <contour>
      <point x="279" y="1345" type="qcurve" smooth="yes"/>
      <point x="279" y="0" type="line"/>
      <point x="125" y="0" type="line"/>
      <point x="125" y="1345" type="line" smooth="yes"/>
      <point x="125.0" y="1442.0"/>
      <point x="237" y="1553"/>
      <point x="323" y="1553.0" type="qcurve" smooth="yes"/>
      <point x="364.0" y="1553.0"/>
      <point x="431.0" y="1536.0"/>
      <point x="443" y="1532" type="qcurve"/>
      <point x="398" y="1388" type="line"/>
      <point x="388.0" y="1392.0"/>
      <point x="361" y="1401"/>
      <point x="339" y="1401" type="qcurve" smooth="yes"/>
      <point x="318" y="1401"/>
      <point x="279.0" y="1370.0"/>
    </contour>
  </outline>
</glyph>
<glyph name="i" format="2">
  <advance width="374"/>
  <unicode hex="0069"/>
  <outline>
    <contour>
      <point x="110" y="0" type="line"/>
      <point x="110" y="1000" type="line"/>
      <point x="264" y="1000" type="line"/>
      <point x="264" y="0" type="line"/>
    </contour>
    <contour>
      <point x="185" y="1171" type="line" smooth="yes"/>
      <point x="234" y="1171"/>
      <point x="289" y="1228"/>
      <point x="289" y="1275" type="qcurve" smooth="yes"/>
      <point x="289" y="1281" type="line" smooth="yes"/>
      <point x="289" y="1328"/>
      <point x="234" y="1386"/>
      <point x="185" y="1386" type="qcurve" smooth="yes"/>
      <point x="183" y="1386" type="line" smooth="yes"/>
      <point x="137" y="1386"/>
      <point x="84" y="1328"/>
      <point x="84" y="1281" type="qcurve" smooth="yes"/>
      <point x="84" y="1275" type="line" smooth="yes"/>
      <point x="84" y="1227"/>
      <point x="136" y="1171"/>
      <point x="183" y="1171" type="qcurve" smooth="yes"/>
    </contour>
    <contour>
      <point x="237" y="865" type="line"/>
      <point x="137" y="865" type="line"/>
      <point x="137" y="1000" type="line"/>
      <point x="237" y="1000" type="line"/>
    </contour>
  </outline>
</glyph>
<glyph name="j" format="2">
  <advance width="375"/>
  <unicode hex="006A"/>
  <outline>
    <contour>
      <point x="267" y="-201" type="line" smooth="yes"/>
      <point x="267" y="-354"/>
      <point x="120" y="-500"/>
      <point x="16" y="-500" type="qcurve" smooth="yes"/>
      <point x="-26" y="-500"/>
      <point x="-66" y="-491"/>
      <point x="-80" y="-484" type="qcurve"/>
      <point x="-60" y="-332" type="line"/>
      <point x="-51" y="-337"/>
      <point x="-20" y="-350"/>
      <point x="8" y="-350" type="qcurve" smooth="yes"/>
      <point x="58" y="-350"/>
      <point x="113" y="-261"/>
      <point x="113" y="-149" type="qcurve" smooth="yes"/>
      <point x="113" y="1000" type="line"/>
      <point x="267" y="1000" type="line"/>
    </contour>
    <contour>
      <point x="193" y="1171" type="line" smooth="yes"/>
      <point x="242" y="1171"/>
      <point x="297" y="1228"/>
      <point x="297" y="1275" type="qcurve" smooth="yes"/>
      <point x="297" y="1281" type="line" smooth="yes"/>
      <point x="297" y="1328"/>
      <point x="242" y="1386"/>
      <point x="193" y="1386" type="qcurve" smooth="yes"/>
      <point x="191" y="1386" type="line" smooth="yes"/>
      <point x="145" y="1386"/>
      <point x="92" y="1328"/>
      <point x="92" y="1281" type="qcurve" smooth="yes"/>
      <point x="92" y="1275" type="line" smooth="yes"/>
      <point x="92" y="1227"/>
      <point x="144" y="1171"/>
      <point x="191" y="1171" type="qcurve" smooth="yes"/>
    </contour>
    <contour>
      <point x="237" y="865" type="line"/>
      <point x="137" y="865" type="line"/>
      <point x="137" y="1000" type="line"/>
      <point x="237" y="1000" type="line"/>
    </contour>
  </outline>
</glyph>
<glyph name="l" format="2">
  <advance width="366"/>
  <unicode hex="006C"/>
  <outline>
    <contour>
      <point x="106" y="90" type="qcurve" smooth="yes"/>
      <point x="106" y="1500" type="line"/>
      <point x="260" y="1500" type="line"/>
      <point x="260" y="0" type="line"/>
      <point x="172" y="0"/>
      <point x="106.0" y="33.0"/>
    </contour>
    <contour>
      <point x="227" y="29" type="line"/>
      <point x="186" y="9" type="line"/>
      <point x="126" y="144" type="line"/>
      <point x="227" y="154" type="line"/>
    </contour>
  </outline>
</glyph>
<glyph name="s" format="2">
  <advance width="666"/>
  <unicode hex="0073"/>
  <outline>
    <contour>
      <point x="476.0" y="276" type="line" smooth="yes"/>
      <point x="476.0" y="329.0"/>
      <point x="404.0" y="410"/>
      <point x="297.0" y="460" type="qcurve" smooth="yes"/>
      <point x="176" y="517"/>
      <point x="47.0" y="652"/>
      <point x="47.0" y="758" type="qcurve" smooth="yes"/>
      <point x="47.0" y="769" type="line" smooth="yes"/>
      <point x="47.0" y="885"/>
      <point x="200.0" y="1020"/>
      <point x="332.0" y="1020" type="qcurve" smooth="yes"/>
      <point x="339.0" y="1020" type="line" smooth="yes"/>
      <point x="461.0" y="1020"/>
      <point x="596" y="892"/>
      <point x="600.0" y="791" type="qcurve" smooth="yes"/>
      <point x="603.0" y="728" type="line"/>
      <point x="460.0" y="728" type="line"/>
      <point x="460.0" y="762" type="line" smooth="yes"/>
      <point x="460.0" y="821"/>
      <point x="402" y="879"/>
      <point x="347.0" y="879" type="qcurve" smooth="yes"/>
      <point x="333.0" y="879" type="line" smooth="yes"/>
      <point x="275" y="879"/>
      <point x="204" y="822"/>
      <point x="204.0" y="770" type="qcurve" smooth="yes"/>
      <point x="204.0" y="762" type="line" smooth="yes"/>
      <point x="204" y="710.0"/>
      <point x="265.0" y="645"/>
      <point x="371.0" y="596" type="qcurve" smooth="yes"/>
      <point x="480.0" y="546"/>
      <point x="632.0" y="394"/>
      <point x="632.0" y="279" type="qcurve" smooth="yes"/>
      <point x="632.0" y="261" type="line" smooth="yes"/>
      <point x="632.0" y="153"/>
      <point x="488.0" y="-16"/>
      <point x="343.0" y="-16" type="qcurve" smooth="yes"/>
      <point x="333.0" y="-16" type="line" smooth="yes"/>
      <point x="195.0" y="-16"/>
      <point x="28.0" y="149"/>
      <point x="28.0" y="275" type="qcurve" smooth="yes"/>
      <point x="28.0" y="313" type="line"/>
      <point x="179.0" y="313" type="line"/>
      <point x="179.0" y="290" type="line" smooth="yes"/>
      <point x="179" y="192"/>
      <point x="251" y="116"/>
      <point x="330.0" y="116" type="qcurve" smooth="yes"/>
      <point x="336.0" y="116" type="line" smooth="yes"/>
      <point x="403.0" y="116.0"/>
      <point x="476" y="196"/>
      <point x="476.0" y="264" type="qcurve" smooth="yes"/>
    </contour>
  </outline>
</glyph>
<glyph name="t" format="2">
  <advance width="432"/>
  <unicode hex="0074"/>
  <outline>
    <contour>
      <point x="408" y="852" type="line"/>
      <point x="20" y="852" type="line"/>
      <point x="20" y="1000" type="line"/>
      <point x="408" y="1000" type="line"/>
    </contour>
    <contour>
      <point x="275.0" y="210" type="line" smooth="yes"/>
      <point x="275.0" y="176.0"/>
      <point x="318.0" y="137.0"/>
      <point x="343.0" y="137" type="qcurve" smooth="yes"/>
      <point x="371" y="137"/>
      <point x="410.0" y="146"/>
      <point x="422.0" y="152" type="qcurve"/>
      <point x="420.0" y="10" type="line"/>
      <point x="402.0" y="4"/>
      <point x="345.0" y="-10"/>
      <point x="307" y="-10" type="qcurve"/>
      <point x="227.0" y="-10"/>
      <point x="121.0" y="96.0"/>
      <point x="121.0" y="189" type="qcurve" smooth="yes"/>
      <point x="121" y="1233" type="line"/>
      <point x="275" y="1233" type="line"/>
    </contour>
  </outline>
</glyph>
<glyph name="v" format="2">
  <advance width="641"/>
  <unicode hex="0076"/>
  <outline>
    <contour>
      <point x="250" y="0" type="line"/>
      <point x="10" y="1000" type="line"/>
      <point x="172" y="1000" type="line"/>
      <point x="322" y="278" type="line"/>
      <point x="480" y="1000" type="line"/>
      <point x="631" y="1000" type="line"/>
      <point x="390" y="0" type="line"/>
    </contour>
  </outline>
</glyph>
<glyph name="z" format="2">
  <advance width="572"/>
  <unicode hex="007A"/>
  <outline>
    <contour>
      <point x="554" y="0" type="line"/>
      <point x="34" y="0" type="line"/>
      <point x="29" y="145" type="line"/>
      <point x="364" y="852" type="line"/>
      <point x="52" y="852" type="line"/>
      <point x="52" y="1000" type="line"/>
      <point x="534" y="1000" type="line"/>
      <point x="534" y="865" type="line"/>
      <point x="192" y="147" type="line"/>
      <point x="554" y="147" type="line"/>
    </contour>
  </outline>
</glyph>
<glyph name="braceleft" format="2">
  <advance width="450"/>
  <unicode hex="007B"/>
  <outline>
    <contour>
      <point x="24" y="531" type="line"/>
      <point x="141" y="531"/>
      <point x="226" y="462"/>
      <point x="226" y="425" type="qcurve" smooth="yes"/>
      <point x="226" y="395"/>
      <point x="171" y="326"/>
      <point x="140" y="284" type="qcurve" smooth="yes"/>
      <point x="108" y="240"/>
      <point x="57" y="140"/>
      <point x="57" y="87" type="qcurve" smooth="yes"/>
      <point x="57" y="-23"/>
      <point x="226" y="-214"/>
      <point x="349" y="-304" type="qcurve"/>
      <point x="480" y="-201" type="line"/>
      <point x="377" y="-127"/>
      <point x="232" y="-14"/>
      <point x="232" y="74" type="qcurve" smooth="yes"/>
      <point x="232" y="109"/>
      <point x="277" y="193"/>
      <point x="306" y="235" type="qcurve" smooth="yes"/>
      <point x="339" y="284"/>
      <point x="393" y="376"/>
      <point x="393" y="410" type="qcurve" smooth="yes"/>
      <point x="393" y="486"/>
      <point x="286" y="585"/>
      <point x="187" y="611" type="qcurve"/>
      <point x="286" y="637"/>
      <point x="393" y="736"/>
      <point x="393" y="812" type="qcurve" smooth="yes"/>
      <point x="393" y="846"/>
      <point x="339" y="938"/>
      <point x="306" y="987" type="qcurve" smooth="yes"/>
      <point x="277" y="1029"/>
      <point x="232" y="1113"/>
      <point x="232" y="1148" type="qcurve" smooth="yes"/>
      <point x="232" y="1236"/>
      <point x="377" y="1389"/>
      <point x="480" y="1423" type="qcurve"/>
      <point x="349" y="1526" type="line"/>
      <point x="226" y="1476"/>
      <point x="57" y="1245"/>
      <point x="57" y="1135" type="qcurve" smooth="yes"/>
      <point x="57" y="1082"/>
      <point x="108" y="982"/>
      <point x="140" y="938" type="qcurve" smooth="yes"/>
      <point x="171" y="896"/>
      <point x="226" y="827"/>
      <point x="226.0" y="797" type="qcurve" smooth="yes"/>
      <point x="226" y="760"/>
      <point x="141" y="690"/>
      <point x="24" y="690" type="qcurve"/>
    </contour>
  </outline>
</glyph>
<glyph name="asciitilde" format="2">
  <advance width="754"/>
  <unicode hex="007E"/>
  <outline>
    <contour>
      <point x="408" y="807.0" type="qcurve" smooth="yes"/>
      <point x="369" y="852.0"/>
      <point x="295" y="902.0"/>
      <point x="230" y="902.0" type="qcurve" smooth="yes"/>
      <point x="154" y="902"/>
      <point x="48" y="770.0"/>
      <point x="28" y="715.0" type="qcurve"/>
      <point x="119" y="615.0" type="line"/>
      <point x="130" y="648.0"/>
      <point x="191" y="730"/>
      <point x="229" y="730.0" type="qcurve"/>
      <point x="268" y="730"/>
      <point x="311" y="696"/>
      <point x="336" y="668.0" type="qcurve" smooth="yes"/>
      <point x="373" y="627"/>
      <point x="453" y="566.0"/>
      <point x="518" y="566.0" type="qcurve" smooth="yes"/>
      <point x="601" y="566.0"/>
      <point x="711" y="700.0"/>
      <point x="726" y="753.0" type="qcurve"/>
      <point x="635" y="853.0" type="line"/>
      <point x="624" y="822.0"/>
      <point x="559" y="738.0"/>
      <point x="521" y="738.0" type="qcurve" smooth="yes"/>
      <point x="484" y="738"/>
      <point x="439" y="772"/>
    </contour>
  </outline>
</glyph>
